# xmcd
#
# Track frame offsets:
#	150
#	12673
#	23395
#	36048
#	46623
#	58892
#	70178
#	79572
#	92073
#	102066
#	113877
#	125352
#	136124
#	147687
#	160102
#	173081
#	186956
#	197242
#	207206
#	216630
#
# Disc length: 3006 seconds
#
# Revision: 1
# Processed by: cddbd v1.5.2PL0 Copyright (c) Steve Scherf et al.
# Submitted via: audiograbber 1.83.01
#
DISCID=180bbc14
DTITLE=Various Artist - 125 Country Hits CD 6
DYEAR=1900
DGENRE=Country
TTITLE0=JIMMY WAKELY - I Love You So Much It Hurts
TTITLE1=PATSY CLINE - I Can See An Angel Walkin'
TTITLE2=STONEWALL JACKSON - Me and You And A Dog Named Boo
TTITLE3=FARON YOUNG - If You Ain't Lovin'
TTITLE4=HANK WILLIAMS - (Last Night) I Heard You Crying In Your Sleep
TTITLE5=WILLIE NELSON - Suffering In Silence
TTITLE6=CHARLIE RICH - Lonely Weekends
TTITLE7=GENE AUTRY - Take Me Back In Your Arms
TTITLE8=DON GIBSON - Lonesome Number One
TTITLE9=JOHNNY CASH - Thanks A Lot
TTITLE10=ROY ROGERS - Hi- Ho Silver
TTITLE11=JUSTIN TUBB - Take A Letter Miss Gray
TTITLE12=CHARLIE WALKER - Pick Me Up On Your Way Down
TTITLE13=DON WILLIAMS - There's Never Been A Time
TTITLE14=LES PAUL AND MARY FORD - Vaya Con Dios (May Good Be With You)
TTITLE15=FREDDY FENDER - Baby I Want To Love You
TTITLE16=DOLLY PARTON - Release Me
TTITLE17=KITTY WELLS - I Can't Stop Loving You
TTITLE18=JOHNNY CASH - New Mexico
TTITLE19=BUCK OWENS - Rhythm And Booze
EXTD=
EXTT0=
EXTT1=
EXTT2=
EXTT3=
EXTT4=
EXTT5=
EXTT6=
EXTT7=
EXTT8=
EXTT9=
EXTT10=
EXTT11=
EXTT12=
EXTT13=
EXTT14=
EXTT15=
EXTT16=
EXTT17=
EXTT18=
EXTT19=
PLAYORDER=
